<mxfile host="65bd71144e">
    <diagram name="Page-1" id="b5b7bab2-c9e2-2cf4-8b2a-24fd1a2a6d21">
        <mxGraphModel dx="508" dy="488" grid="1" gridSize="10" guides="1" tooltips="1" connect="1" arrows="1" fold="1" page="1" pageScale="1" pageWidth="827" pageHeight="1169" background="none" math="0" shadow="0">
            <root>
                <mxCell id="0"/>
                <mxCell id="1" parent="0"/>
                <mxCell id="23JfTSlA8FP28jlLwser-1" value="frame" style="shape=umlFrame;whiteSpace=wrap;html=1;" parent="1" vertex="1">
                    <mxGeometry x="520" y="400" width="600" height="530" as="geometry"/>
                </mxCell>
                <mxCell id="23JfTSlA8FP28jlLwser-2" value="conta.py" style="shape=folder;fontStyle=1;spacingTop=10;tabWidth=40;tabHeight=14;tabPosition=left;html=1;verticalAlign=top;" parent="1" vertex="1">
                    <mxGeometry x="560" y="445" width="260" height="445" as="geometry"/>
                </mxCell>
                <mxCell id="23JfTSlA8FP28jlLwser-7" value="Conta    " style="swimlane;fontStyle=1;align=center;verticalAlign=top;childLayout=stackLayout;horizontal=1;startSize=26;horizontalStack=0;resizeParent=1;resizeParentMax=0;resizeLast=0;collapsible=1;marginBottom=0;" parent="1" vertex="1">
                    <mxGeometry x="585" y="495" width="215" height="320" as="geometry"/>
                </mxCell>
                <mxCell id="23JfTSlA8FP28jlLwser-8" value="+ field: numero&#10;" style="text;strokeColor=none;fillColor=none;align=left;verticalAlign=top;spacingLeft=4;spacingRight=4;overflow=hidden;rotatable=0;points=[[0,0.5],[1,0.5]];portConstraint=eastwest;" parent="23JfTSlA8FP28jlLwser-7" vertex="1">
                    <mxGeometry y="26" width="215" height="26" as="geometry"/>
                </mxCell>
                <mxCell id="23JfTSlA8FP28jlLwser-13" value="+ field: titular" style="text;strokeColor=none;fillColor=none;align=left;verticalAlign=top;spacingLeft=4;spacingRight=4;overflow=hidden;rotatable=0;points=[[0,0.5],[1,0.5]];portConstraint=eastwest;" parent="23JfTSlA8FP28jlLwser-7" vertex="1">
                    <mxGeometry y="52" width="215" height="26" as="geometry"/>
                </mxCell>
                <mxCell id="23JfTSlA8FP28jlLwser-11" value="+ field: saldo" style="text;strokeColor=none;fillColor=none;align=left;verticalAlign=top;spacingLeft=4;spacingRight=4;overflow=hidden;rotatable=0;points=[[0,0.5],[1,0.5]];portConstraint=eastwest;" parent="23JfTSlA8FP28jlLwser-7" vertex="1">
                    <mxGeometry y="78" width="215" height="26" as="geometry"/>
                </mxCell>
                <mxCell id="23JfTSlA8FP28jlLwser-12" value="+ field: limite" style="text;strokeColor=none;fillColor=none;align=left;verticalAlign=top;spacingLeft=4;spacingRight=4;overflow=hidden;rotatable=0;points=[[0,0.5],[1,0.5]];portConstraint=eastwest;" parent="23JfTSlA8FP28jlLwser-7" vertex="1">
                    <mxGeometry y="104" width="215" height="26" as="geometry"/>
                </mxCell>
                <mxCell id="23JfTSlA8FP28jlLwser-9" value="" style="line;strokeWidth=1;fillColor=none;align=left;verticalAlign=middle;spacingTop=-1;spacingLeft=3;spacingRight=3;rotatable=0;labelPosition=right;points=[];portConstraint=eastwest;" parent="23JfTSlA8FP28jlLwser-7" vertex="1">
                    <mxGeometry y="130" width="215" height="8" as="geometry"/>
                </mxCell>
                <mxCell id="23JfTSlA8FP28jlLwser-10" value="+ extrato(self): " style="text;strokeColor=none;fillColor=none;align=left;verticalAlign=top;spacingLeft=4;spacingRight=4;overflow=hidden;rotatable=0;points=[[0,0.5],[1,0.5]];portConstraint=eastwest;" parent="23JfTSlA8FP28jlLwser-7" vertex="1">
                    <mxGeometry y="138" width="215" height="22" as="geometry"/>
                </mxCell>
                <mxCell id="11" value="+ saca(self, valor): " style="text;strokeColor=none;fillColor=none;align=left;verticalAlign=top;spacingLeft=4;spacingRight=4;overflow=hidden;rotatable=0;points=[[0,0.5],[1,0.5]];portConstraint=eastwest;" parent="23JfTSlA8FP28jlLwser-7" vertex="1">
                    <mxGeometry y="160" width="215" height="20" as="geometry"/>
                </mxCell>
                <mxCell id="12" value="+ deposita(self, valor): " style="text;strokeColor=none;fillColor=none;align=left;verticalAlign=top;spacingLeft=4;spacingRight=4;overflow=hidden;rotatable=0;points=[[0,0.5],[1,0.5]];portConstraint=eastwest;" parent="23JfTSlA8FP28jlLwser-7" vertex="1">
                    <mxGeometry y="180" width="215" height="20" as="geometry"/>
                </mxCell>
                <mxCell id="13" value="+ __valida_saldo(self, valor_do_saque): " style="text;strokeColor=none;fillColor=none;align=left;verticalAlign=top;spacingLeft=4;spacingRight=4;overflow=hidden;rotatable=0;points=[[0,0.5],[1,0.5]];portConstraint=eastwest;fontStyle=0" vertex="1" parent="23JfTSlA8FP28jlLwser-7">
                    <mxGeometry y="200" width="215" height="20" as="geometry"/>
                </mxCell>
                <mxCell id="14" value="+ transfere(self, c_destino, valor): " style="text;strokeColor=none;fillColor=none;align=left;verticalAlign=top;spacingLeft=4;spacingRight=4;overflow=hidden;rotatable=0;points=[[0,0.5],[1,0.5]];portConstraint=eastwest;fontStyle=0" vertex="1" parent="23JfTSlA8FP28jlLwser-7">
                    <mxGeometry y="220" width="215" height="20" as="geometry"/>
                </mxCell>
                <mxCell id="15" value="@staticmethod&#10;+ codigo_banco(): " style="text;strokeColor=none;fillColor=none;align=left;verticalAlign=top;spacingLeft=4;spacingRight=4;overflow=hidden;rotatable=0;points=[[0,0.5],[1,0.5]];portConstraint=eastwest;fontStyle=0" vertex="1" parent="23JfTSlA8FP28jlLwser-7">
                    <mxGeometry y="240" width="215" height="40" as="geometry"/>
                </mxCell>
                <mxCell id="17" value="@staticmethod&#10;+ codigo_banco(): " style="text;strokeColor=none;fillColor=none;align=left;verticalAlign=top;spacingLeft=4;spacingRight=4;overflow=hidden;rotatable=0;points=[[0,0.5],[1,0.5]];portConstraint=eastwest;fontStyle=0" vertex="1" parent="23JfTSlA8FP28jlLwser-7">
                    <mxGeometry y="280" width="215" height="40" as="geometry"/>
                </mxCell>
                <mxCell id="3" value="pessoa.py" style="shape=folder;fontStyle=1;spacingTop=10;tabWidth=40;tabHeight=14;tabPosition=left;html=1;verticalAlign=top;" parent="1" vertex="1">
                    <mxGeometry x="860" y="445" width="210" height="280" as="geometry"/>
                </mxCell>
                <mxCell id="4" value="Conta    " style="swimlane;fontStyle=1;align=center;verticalAlign=top;childLayout=stackLayout;horizontal=1;startSize=26;horizontalStack=0;resizeParent=1;resizeParentMax=0;resizeLast=0;collapsible=1;marginBottom=0;" parent="1" vertex="1">
                    <mxGeometry x="885" y="495" width="160" height="164" as="geometry"/>
                </mxCell>
                <mxCell id="5" value="+ numero&#10;" style="text;strokeColor=none;fillColor=none;align=left;verticalAlign=top;spacingLeft=4;spacingRight=4;overflow=hidden;rotatable=0;points=[[0,0.5],[1,0.5]];portConstraint=eastwest;" parent="4" vertex="1">
                    <mxGeometry y="26" width="160" height="26" as="geometry"/>
                </mxCell>
                <mxCell id="6" value="+ titular" style="text;strokeColor=none;fillColor=none;align=left;verticalAlign=top;spacingLeft=4;spacingRight=4;overflow=hidden;rotatable=0;points=[[0,0.5],[1,0.5]];portConstraint=eastwest;" parent="4" vertex="1">
                    <mxGeometry y="52" width="160" height="26" as="geometry"/>
                </mxCell>
                <mxCell id="7" value="+ saldo" style="text;strokeColor=none;fillColor=none;align=left;verticalAlign=top;spacingLeft=4;spacingRight=4;overflow=hidden;rotatable=0;points=[[0,0.5],[1,0.5]];portConstraint=eastwest;" parent="4" vertex="1">
                    <mxGeometry y="78" width="160" height="26" as="geometry"/>
                </mxCell>
                <mxCell id="8" value="+ limite" style="text;strokeColor=none;fillColor=none;align=left;verticalAlign=top;spacingLeft=4;spacingRight=4;overflow=hidden;rotatable=0;points=[[0,0.5],[1,0.5]];portConstraint=eastwest;" parent="4" vertex="1">
                    <mxGeometry y="104" width="160" height="26" as="geometry"/>
                </mxCell>
                <mxCell id="9" value="" style="line;strokeWidth=1;fillColor=none;align=left;verticalAlign=middle;spacingTop=-1;spacingLeft=3;spacingRight=3;rotatable=0;labelPosition=right;points=[];portConstraint=eastwest;" parent="4" vertex="1">
                    <mxGeometry y="130" width="160" height="8" as="geometry"/>
                </mxCell>
                <mxCell id="10" value="+ method(type): type" style="text;strokeColor=none;fillColor=none;align=left;verticalAlign=top;spacingLeft=4;spacingRight=4;overflow=hidden;rotatable=0;points=[[0,0.5],[1,0.5]];portConstraint=eastwest;" parent="4" vertex="1">
                    <mxGeometry y="138" width="160" height="26" as="geometry"/>
                </mxCell>
            </root>
        </mxGraphModel>
    </diagram>
</mxfile>